<svg id="svg" version="1.1" xmlns="http://www.w3.org/2000/svg" xmlns:xlink="http://www.w3.org/1999/xlink" width="400" height="400" viewBox="0, 0, 400,400"><g id="svgg"><path id="path0" d="M118.000 112.743 C 112.438 113.054,112.567 112.978,112.288 116.063 C 111.977 119.485,110.329 120.800,106.351 120.800 C 104.381 120.800,104.345 120.822,103.587 122.536 C 102.642 124.674,97.840 129.200,96.519 129.200 C 96.233 129.200,96.000 129.470,96.000 129.800 C 96.000 130.130,95.832 130.400,95.627 130.400 C 95.422 130.400,95.152 130.720,95.028 131.111 C 94.728 132.057,91.242 135.663,89.991 136.322 C 88.164 137.285,87.601 137.881,87.513 138.944 C 87.465 139.525,87.285 140.000,87.113 140.000 C 86.941 140.000,86.839 140.135,86.886 140.300 C 87.304 141.761,85.437 144.300,83.570 144.808 C 82.487 145.103,81.600 145.492,81.600 145.672 C 81.600 145.853,81.173 146.000,80.650 146.000 C 79.407 146.000,79.200 147.065,79.200 153.459 L 79.200 158.417 77.100 160.509 C 75.945 161.659,74.496 162.825,73.879 163.101 C 71.592 164.123,71.400 165.323,71.400 178.600 C 71.400 194.050,71.809 195.162,77.500 195.191 L 79.200 195.200 79.202 201.900 C 79.205 215.539,80.526 219.139,85.793 219.861 C 87.586 220.107,87.600 220.120,87.600 221.678 C 87.600 222.541,87.758 223.150,87.950 223.031 C 88.143 222.912,88.225 223.576,88.133 224.507 C 87.912 226.756,88.694 228.205,90.118 228.184 C 90.713 228.176,91.200 228.285,91.200 228.428 C 91.200 228.571,92.209 228.792,93.442 228.919 C 96.169 229.201,95.853 228.829,96.336 232.323 C 96.761 235.392,97.355 236.580,98.285 236.223 C 98.591 236.105,98.740 236.174,98.615 236.375 C 98.350 236.805,102.505 237.399,103.394 237.058 C 103.727 236.930,104.000 236.999,104.000 237.213 C 104.000 237.426,104.539 237.600,105.198 237.600 C 106.226 237.600,106.516 237.856,107.245 239.406 C 108.042 241.102,109.795 242.800,110.748 242.800 C 110.981 242.800,111.813 243.363,112.597 244.051 C 113.705 245.024,114.419 245.313,115.808 245.351 C 116.791 245.378,117.596 245.535,117.598 245.700 C 117.599 245.865,127.680 246.000,140.000 246.000 C 160.396 246.000,162.400 245.942,162.400 245.351 C 162.400 244.835,162.517 244.799,162.970 245.175 C 163.310 245.457,164.076 245.548,164.870 245.401 C 167.515 244.909,167.808 244.861,168.300 244.831 C 168.575 244.814,168.800 244.519,168.800 244.176 C 168.800 243.833,168.967 243.656,169.171 243.782 C 169.622 244.061,170.152 242.569,169.802 242.004 C 169.665 241.782,169.743 241.600,169.976 241.600 C 170.217 241.600,170.400 240.749,170.400 239.627 L 170.400 237.653 174.300 237.476 C 182.861 237.088,185.834 235.536,186.519 231.096 C 186.827 229.098,187.434 228.574,190.075 228.026 C 193.272 227.362,194.369 225.991,194.969 221.909 C 195.121 220.869,195.416 219.914,195.623 219.786 C 195.830 219.658,196.000 217.947,196.000 215.984 C 196.000 211.942,195.680 212.272,200.072 211.796 C 204.055 211.364,203.805 213.591,203.780 178.800 C 203.755 143.619,204.206 146.675,198.966 146.184 L 196.000 145.906 196.000 142.177 C 196.000 140.125,195.846 138.352,195.658 138.236 C 195.470 138.120,195.202 136.931,195.062 135.594 C 194.592 131.093,193.850 130.535,186.996 129.526 C 186.773 129.493,186.654 128.809,186.731 128.006 C 187.206 123.029,185.671 121.908,177.060 120.944 C 174.229 120.627,171.325 118.130,170.471 115.279 C 170.053 113.885,169.748 113.562,168.489 113.184 C 166.795 112.674,125.657 112.315,118.000 112.743 M146.169 146.900 C 146.270 147.395,146.434 148.675,146.532 149.745 C 146.821 152.875,147.445 153.240,153.423 153.777 C 154.290 153.855,155.316 153.937,155.703 153.959 C 156.131 153.984,156.656 154.624,157.045 155.595 C 157.756 157.373,159.897 159.458,161.397 159.835 C 162.468 160.104,162.576 160.479,162.997 165.358 C 163.362 169.600,164.290 170.392,168.900 170.398 L 170.800 170.400 170.800 179.000 C 170.800 186.522,170.722 187.600,170.176 187.600 C 169.833 187.600,169.637 187.735,169.739 187.900 C 169.842 188.065,168.890 188.140,167.623 188.068 C 164.237 187.873,163.252 188.831,162.963 192.600 C 162.625 197.016,162.603 197.065,160.874 197.342 C 157.887 197.819,156.232 199.617,155.441 203.241 C 155.219 204.259,155.122 204.288,151.256 204.501 C 149.080 204.621,146.887 204.939,146.385 205.208 C 145.882 205.477,144.317 205.939,142.907 206.234 C 141.496 206.529,139.749 207.137,139.024 207.585 C 137.457 208.553,137.200 208.587,137.200 207.822 C 137.200 205.449,133.417 204.410,124.748 204.403 L 120.895 204.400 120.727 200.553 C 120.605 197.770,120.394 196.580,119.964 196.253 C 119.636 196.004,119.134 195.005,118.848 194.033 C 118.173 191.741,116.537 190.141,114.240 189.526 L 112.400 189.034 112.400 177.603 L 112.400 166.172 113.586 165.472 C 114.238 165.087,115.075 164.258,115.445 163.631 C 115.983 162.720,116.476 162.450,117.894 162.291 C 120.342 162.015,120.530 161.704,120.726 157.603 L 120.898 154.000 123.949 153.999 C 132.834 153.998,135.914 152.512,136.607 147.895 L 136.891 146.000 141.438 146.000 C 145.832 146.000,145.991 146.030,146.169 146.900 " stroke="none" fill="#f4bc04" fill-rule="evenodd"></path><path id="path1" d="M236.084 97.815 C 235.801 98.137,235.261 98.387,234.884 98.372 C 234.313 98.348,234.333 98.284,235.000 97.981 C 236.285 97.399,232.813 98.015,231.271 98.642 C 230.540 98.940,230.056 99.367,230.195 99.592 C 230.334 99.816,230.176 100.000,229.843 100.000 C 229.511 100.000,229.064 100.314,228.850 100.697 C 228.635 101.080,228.345 101.278,228.204 101.138 C 227.892 100.825,225.650 102.886,225.870 103.283 C 226.141 103.773,223.541 104.882,222.561 104.695 C 222.046 104.596,221.719 104.670,221.836 104.858 C 221.952 105.046,221.812 105.210,221.524 105.222 C 218.535 105.346,217.422 105.533,217.290 105.930 C 217.204 106.188,216.801 106.400,216.396 106.400 C 215.435 106.400,213.898 108.365,214.138 109.285 C 214.241 109.678,214.162 110.000,213.963 110.000 C 213.763 110.000,213.600 110.630,213.600 111.400 C 213.600 112.170,213.409 112.800,213.176 112.800 C 212.943 112.800,212.859 112.972,212.988 113.181 C 213.211 113.541,210.769 114.392,209.168 114.512 C 208.765 114.543,208.495 114.628,208.568 114.702 C 208.642 114.776,208.165 115.373,207.508 116.031 C 206.712 116.827,206.382 117.488,206.519 118.014 C 206.638 118.466,206.481 118.939,206.152 119.123 C 205.768 119.338,205.511 120.424,205.373 122.422 C 205.259 124.060,205.052 125.670,204.913 126.000 C 204.551 126.859,204.461 147.681,204.817 148.400 C 204.980 148.730,205.219 150.575,205.347 152.500 C 205.475 154.428,205.858 156.539,206.200 157.200 C 206.541 157.860,206.737 158.400,206.636 158.400 C 206.400 158.400,208.532 160.647,208.800 160.680 C 208.910 160.694,209.450 160.729,210.000 160.759 C 210.799 160.801,210.879 160.890,210.400 161.200 C 209.936 161.500,210.063 161.589,210.956 161.594 C 211.592 161.597,212.370 161.915,212.686 162.300 C 213.017 162.705,213.130 162.747,212.953 162.400 C 212.688 161.881,212.739 161.875,213.332 162.356 C 213.738 162.686,213.924 163.209,213.788 163.637 C 213.082 165.862,215.307 169.073,217.839 169.484 C 219.122 169.692,219.573 170.125,218.900 170.501 C 218.735 170.593,218.859 170.601,219.176 170.518 C 221.408 169.932,225.275 170.930,225.906 172.254 C 226.259 172.993,227.054 173.822,227.674 174.097 C 228.293 174.371,228.800 174.723,228.800 174.879 C 228.800 175.035,229.430 175.461,230.200 175.827 C 230.970 176.192,231.600 176.741,231.600 177.046 C 231.600 177.351,231.780 177.600,232.000 177.600 C 232.220 177.600,232.400 177.398,232.400 177.151 C 232.400 176.831,232.563 176.838,232.971 177.176 C 233.672 177.758,241.233 178.064,244.677 177.650 C 246.039 177.486,247.063 177.498,246.953 177.676 C 246.843 177.854,247.039 178.000,247.389 178.000 C 247.739 178.000,248.129 177.730,248.255 177.400 C 248.382 177.070,248.657 176.800,248.866 176.800 C 249.076 176.800,249.136 176.980,249.000 177.200 C 248.864 177.420,249.033 177.600,249.376 177.600 C 249.719 177.600,250.000 177.330,250.000 177.000 C 250.000 176.470,250.753 176.193,251.730 176.363 C 251.911 176.394,251.948 176.239,251.811 176.018 C 251.472 175.469,252.312 173.985,252.896 174.104 C 253.156 174.157,253.544 173.520,253.758 172.689 C 254.190 171.008,254.601 170.811,258.045 170.625 C 259.230 170.561,260.584 170.484,261.053 170.454 C 261.541 170.423,261.996 170.058,262.116 169.600 C 262.231 169.160,262.533 168.800,262.786 168.800 C 263.040 168.800,263.148 168.961,263.026 169.157 C 262.820 169.491,263.956 169.289,266.359 168.565 C 267.154 168.325,267.219 168.201,266.743 167.838 C 266.248 167.461,266.264 167.306,266.853 166.731 C 267.493 166.105,267.556 166.105,267.809 166.731 C 268.036 167.292,268.146 167.238,268.485 166.400 C 269.207 164.617,269.547 162.785,269.105 163.058 C 268.877 163.200,268.781 163.066,268.889 162.756 C 268.994 162.450,269.423 162.209,269.840 162.219 C 270.453 162.234,270.613 161.928,270.665 160.639 C 270.707 159.595,270.985 158.862,271.465 158.526 C 273.283 157.254,274.400 156.284,274.400 155.976 C 274.400 155.792,274.847 155.159,275.393 154.570 C 275.938 153.981,276.289 153.344,276.172 153.154 C 276.054 152.964,276.220 152.909,276.539 153.032 C 277.294 153.322,278.135 150.876,277.774 149.440 C 277.614 148.802,277.680 148.400,277.944 148.400 C 278.181 148.400,278.271 148.130,278.145 147.800 C 278.018 147.470,278.100 147.200,278.328 147.200 C 278.555 147.200,278.824 147.515,278.924 147.900 C 279.025 148.285,279.128 147.835,279.154 146.900 C 279.179 145.965,279.065 145.200,278.900 145.200 C 278.735 145.200,278.600 141.871,278.600 137.801 C 278.600 133.731,278.735 130.401,278.900 130.400 C 279.065 130.400,279.197 129.635,279.194 128.700 C 279.190 127.495,279.079 127.171,278.816 127.588 C 278.327 128.362,278.019 128.007,277.930 126.568 C 277.890 125.926,277.760 125.220,277.642 125.000 C 277.524 124.780,277.421 124.234,277.413 123.787 C 277.406 123.339,276.725 122.298,275.900 121.473 C 275.075 120.648,274.400 119.832,274.400 119.659 C 274.400 119.269,272.756 117.819,271.634 117.218 C 271.092 116.928,270.800 116.378,270.800 115.647 C 270.800 115.029,270.440 114.107,270.000 113.600 C 269.560 113.093,269.200 112.360,269.200 111.972 C 269.200 110.899,268.759 109.978,268.363 110.223 C 268.168 110.343,268.109 110.182,268.230 109.865 C 268.735 108.549,264.524 105.960,262.896 106.585 C 262.526 106.726,262.345 106.721,262.493 106.574 C 263.333 105.734,259.737 104.700,255.800 104.649 C 254.815 104.636,254.201 104.065,253.794 102.782 C 253.623 102.242,252.878 101.247,252.139 100.570 C 251.400 99.892,250.916 99.217,251.064 99.069 C 251.212 98.921,251.033 98.778,250.667 98.750 C 249.889 98.692,249.884 98.691,247.815 98.083 C 246.944 97.827,245.549 97.727,244.715 97.860 C 243.714 98.020,243.200 97.949,243.200 97.651 C 243.200 96.933,236.731 97.082,236.084 97.815 M240.000 100.800 C 240.000 101.020,239.505 101.182,238.900 101.160 L 237.800 101.120 238.800 100.800 C 239.350 100.624,239.845 100.462,239.900 100.440 C 239.955 100.418,240.000 100.580,240.000 100.800 M233.987 102.700 C 233.981 102.865,233.486 103.346,232.887 103.768 L 231.800 104.536 232.770 103.468 C 233.789 102.346,234.008 102.207,233.987 102.700 M213.410 115.570 C 213.265 116.026,212.982 116.400,212.782 116.400 C 212.581 116.400,212.623 115.949,212.874 115.398 C 213.406 114.230,213.795 114.355,213.410 115.570 M111.742 116.243 C 111.419 117.129,109.009 119.600,108.469 119.600 C 108.265 119.600,107.851 119.900,107.549 120.267 C 107.051 120.873,107.121 120.911,108.304 120.677 C 110.303 120.281,111.891 118.905,112.190 117.310 C 112.479 115.772,112.177 115.052,111.742 116.243 M204.554 121.377 C 204.432 121.694,204.403 122.279,204.489 122.677 C 204.587 123.128,204.724 122.912,204.854 122.100 C 205.071 120.738,204.930 120.396,204.554 121.377 M103.600 121.546 C 103.600 121.810,103.285 122.159,102.900 122.323 C 101.019 123.120,99.249 124.543,98.570 125.803 C 98.157 126.572,97.708 127.200,97.573 127.200 C 97.439 127.200,97.123 127.650,96.873 128.200 C 96.073 129.956,97.226 129.329,100.887 126.018 C 102.693 124.386,104.302 121.768,103.805 121.272 C 103.692 121.159,103.600 121.282,103.600 121.546 M94.400 130.400 C 93.850 130.830,93.251 131.186,93.069 131.191 C 92.683 131.201,89.604 134.337,89.591 134.733 C 89.586 134.880,89.230 135.450,88.800 136.000 C 87.673 137.441,87.822 137.781,89.162 136.827 C 89.801 136.372,90.435 136.000,90.571 136.000 C 91.008 136.000,94.795 131.847,95.028 131.111 C 95.152 130.720,95.422 130.400,95.627 130.400 C 95.832 130.400,96.000 130.220,96.000 130.000 C 96.000 129.405,95.518 129.526,94.400 130.400 M240.562 137.347 L 241.619 137.895 239.921 138.166 C 238.988 138.315,238.086 138.654,237.918 138.919 C 237.726 139.221,237.610 139.057,237.606 138.476 C 237.602 137.853,237.762 137.644,238.100 137.835 C 238.500 138.061,238.500 138.010,238.100 137.579 C 236.960 136.350,238.383 136.216,240.562 137.347 M83.878 142.509 C 82.161 144.258,80.866 145.799,81.000 145.933 C 81.134 146.067,81.369 145.987,81.522 145.754 C 81.675 145.521,82.644 145.085,83.676 144.785 C 85.421 144.278,86.979 142.139,86.766 140.545 C 86.747 140.404,86.946 140.157,87.209 139.995 C 87.471 139.833,87.531 139.616,87.343 139.514 C 87.154 139.412,85.595 140.760,83.878 142.509 M204.406 152.833 C 204.409 153.365,204.589 154.070,204.806 154.400 C 205.082 154.822,205.123 154.585,204.942 153.600 C 204.625 151.875,204.398 151.549,204.406 152.833 M274.000 154.525 C 274.000 154.594,273.415 155.179,272.700 155.825 L 271.400 157.000 272.575 155.700 C 273.670 154.488,274.000 154.216,274.000 154.525 M246.279 170.717 C 246.595 170.917,246.631 171.222,246.385 171.611 C 246.133 172.009,246.010 172.038,246.006 171.700 C 246.003 171.425,245.629 171.200,245.176 171.200 C 244.723 171.200,244.464 171.020,244.600 170.800 C 244.892 170.327,245.610 170.292,246.279 170.717 M242.800 171.800 C 242.800 172.130,242.639 172.400,242.443 172.400 C 242.246 172.400,241.982 172.130,241.855 171.800 C 241.715 171.435,241.855 171.200,242.213 171.200 C 242.536 171.200,242.800 171.470,242.800 171.800 M245.374 173.755 C 245.662 173.644,245.996 173.812,246.116 174.126 C 246.300 174.606,246.069 174.631,244.692 174.281 C 243.377 173.948,243.203 173.808,243.824 173.586 C 244.251 173.433,244.657 173.453,244.726 173.631 C 244.795 173.809,245.087 173.865,245.374 173.755 M240.600 174.400 C 241.371 174.731,241.369 174.745,240.524 174.772 C 240.042 174.787,239.536 174.620,239.400 174.400 C 239.108 173.927,239.499 173.927,240.600 174.400 " stroke="none" fill="#1c2454" fill-rule="evenodd"></path><path id="path2" d="M237.513 96.295 C 238.676 96.376,240.476 96.376,241.513 96.293 C 242.551 96.211,241.600 96.145,239.400 96.146 C 237.200 96.147,236.351 96.214,237.513 96.295 M238.800 100.800 L 237.800 101.120 238.900 101.160 C 239.505 101.182,240.000 101.020,240.000 100.800 C 240.000 100.580,239.955 100.418,239.900 100.440 C 239.845 100.462,239.350 100.624,238.800 100.800 M232.770 103.468 L 231.800 104.536 232.887 103.768 C 233.486 103.346,233.981 102.865,233.987 102.700 C 234.008 102.207,233.789 102.346,232.770 103.468 M216.705 104.683 C 217.202 104.779,217.922 104.775,218.305 104.675 C 218.687 104.575,218.280 104.496,217.400 104.501 C 216.520 104.505,216.207 104.587,216.705 104.683 M212.893 108.400 C 212.893 109.170,212.975 109.485,213.076 109.100 C 213.176 108.715,213.176 108.085,213.076 107.700 C 212.975 107.315,212.893 107.630,212.893 108.400 M209.505 113.083 C 210.002 113.179,210.722 113.175,211.105 113.075 C 211.487 112.975,211.080 112.896,210.200 112.901 C 209.320 112.905,209.007 112.987,209.505 113.083 M212.874 115.398 C 212.623 115.949,212.581 116.400,212.782 116.400 C 213.175 116.400,213.784 114.851,213.501 114.568 C 213.407 114.474,213.125 114.847,212.874 115.398 M204.509 119.600 C 204.509 120.590,204.587 120.995,204.682 120.500 C 204.778 120.005,204.778 119.195,204.682 118.700 C 204.587 118.205,204.509 118.610,204.509 119.600 M204.550 137.400 C 204.551 139.820,204.616 140.758,204.696 139.485 C 204.776 138.212,204.775 136.232,204.694 135.085 C 204.614 133.938,204.549 134.980,204.550 137.400 M204.509 155.600 C 204.509 156.590,204.587 156.995,204.682 156.500 C 204.778 156.005,204.778 155.195,204.682 154.700 C 204.587 154.205,204.509 154.610,204.509 155.600 M244.600 170.800 C 244.464 171.020,244.723 171.200,245.176 171.200 C 245.629 171.200,246.003 171.425,246.006 171.700 C 246.010 172.038,246.133 172.009,246.385 171.611 C 246.631 171.222,246.595 170.917,246.279 170.717 C 245.610 170.292,244.892 170.327,244.600 170.800 M241.855 171.800 C 241.982 172.130,242.246 172.400,242.443 172.400 C 242.639 172.400,242.800 172.130,242.800 171.800 C 242.800 171.470,242.536 171.200,242.213 171.200 C 241.855 171.200,241.715 171.435,241.855 171.800 M243.824 173.586 C 243.203 173.808,243.377 173.948,244.692 174.281 C 246.069 174.631,246.300 174.606,246.116 174.126 C 245.996 173.812,245.662 173.644,245.374 173.755 C 245.087 173.865,244.795 173.809,244.726 173.631 C 244.657 173.453,244.251 173.433,243.824 173.586 M239.400 174.400 C 239.536 174.620,240.042 174.787,240.524 174.772 C 241.369 174.745,241.371 174.731,240.600 174.400 C 239.499 173.927,239.108 173.927,239.400 174.400 M245.300 222.276 C 245.685 222.376,246.315 222.376,246.700 222.276 C 247.085 222.175,246.770 222.093,246.000 222.093 C 245.230 222.093,244.915 222.175,245.300 222.276 M255.194 223.515 C 257.955 224.906,259.960 226.990,259.993 228.500 C 260.012 229.353,259.227 228.633,258.997 227.586 C 258.848 226.906,258.263 226.075,257.665 225.696 C 257.079 225.323,256.510 224.905,256.400 224.767 C 256.290 224.629,255.525 224.296,254.700 224.027 C 253.875 223.758,253.200 223.352,253.200 223.126 C 253.200 222.886,252.782 222.818,252.200 222.964 C 251.623 223.109,251.200 223.043,251.200 222.808 C 251.200 222.583,251.020 222.400,250.800 222.400 C 249.961 222.400,250.438 223.603,251.300 223.661 C 252.768 223.760,252.975 223.806,253.519 224.146 C 253.924 224.399,253.933 224.598,253.563 225.045 C 253.183 225.503,253.204 225.573,253.670 225.395 C 254.715 224.994,257.115 226.684,258.222 228.600 C 259.368 230.586,261.119 229.442,260.434 227.156 C 259.750 224.871,258.130 223.454,255.294 222.658 C 251.874 221.699,251.858 221.834,255.194 223.515 M242.008 222.846 C 240.818 223.321,239.675 224.313,239.117 225.354 C 238.893 225.774,239.331 225.495,240.092 224.735 C 240.853 223.974,242.088 223.156,242.838 222.917 C 243.587 222.677,243.930 222.475,243.600 222.466 C 243.270 222.458,242.554 222.629,242.008 222.846 M253.949 226.700 C 254.475 227.675,256.351 229.382,256.612 229.122 C 256.812 228.921,254.130 226.000,253.746 226.000 C 253.650 226.000,253.742 226.315,253.949 226.700 M230.022 235.000 C 229.618 236.847,229.619 237.759,230.023 237.088 C 230.259 236.697,230.375 235.977,230.281 235.488 C 230.186 235.000,230.070 234.780,230.022 235.000 M190.001 240.198 C 189.486 240.748,189.139 241.248,189.232 241.311 C 189.324 241.374,189.884 240.924,190.474 240.312 C 191.065 239.701,191.412 239.200,191.244 239.200 C 191.077 239.200,190.517 239.649,190.001 240.198 M184.468 251.327 C 183.247 252.627,183.382 252.982,184.624 251.739 C 185.188 251.176,185.578 250.645,185.492 250.559 C 185.407 250.473,184.946 250.819,184.468 251.327 M188.618 271.171 C 188.442 271.456,188.480 271.804,188.702 271.945 C 188.925 272.085,189.197 272.560,189.307 273.000 L 189.507 273.800 189.525 273.000 C 189.555 271.689,188.995 270.560,188.618 271.171 M190.600 275.600 C 190.736 275.820,190.649 276.000,190.408 276.000 C 190.125 276.000,190.152 276.200,190.484 276.561 C 190.768 276.869,191.060 276.958,191.134 276.758 C 191.208 276.558,191.478 276.517,191.734 276.666 C 191.990 276.815,191.857 276.547,191.438 276.069 C 190.649 275.169,190.167 274.900,190.600 275.600 " stroke="none" fill="#1c245c" fill-rule="evenodd"></path><path id="path3" d="M154.307 10.698 L 154.200 21.397 151.901 21.684 C 148.083 22.161,147.097 23.172,146.569 27.152 C 146.266 29.433,145.678 30.000,143.613 30.000 C 140.364 30.000,139.087 31.293,138.268 35.413 L 137.800 37.768 135.294 38.273 C 131.283 39.082,130.000 40.376,130.000 43.613 C 130.000 45.704,129.434 46.279,127.085 46.572 C 123.213 47.056,121.623 48.803,121.596 52.600 C 121.584 54.311,121.230 54.664,119.200 54.996 C 115.049 55.673,114.150 56.540,113.405 60.583 L 112.966 62.966 110.583 63.405 C 106.478 64.162,105.916 64.721,105.072 68.891 L 104.565 71.394 102.464 71.696 C 98.408 72.280,97.516 73.157,96.668 77.397 L 96.200 79.735 93.639 80.255 C 90.053 80.983,88.400 82.943,88.400 86.466 C 88.400 87.706,87.706 88.400,86.466 88.400 C 82.966 88.400,80.983 90.057,80.264 93.580 C 79.706 96.318,79.456 96.563,76.800 96.967 C 73.628 97.449,72.338 98.874,71.795 102.492 C 71.468 104.677,71.162 104.994,69.014 105.382 C 65.720 105.977,63.634 108.237,63.609 111.238 C 63.598 112.505,62.474 113.597,61.169 113.609 C 58.192 113.636,56.192 115.503,55.396 119.000 C 54.897 121.194,54.486 121.520,51.003 122.484 C 48.650 123.136,47.438 124.622,47.027 127.357 C 46.705 129.510,46.332 129.851,43.689 130.418 C 40.799 131.038,39.727 132.019,38.979 134.726 C 37.993 138.294,37.775 138.569,35.504 139.109 C 32.753 139.762,31.356 141.159,30.752 143.860 L 30.273 146.000 15.136 146.000 L 0.000 146.000 0.000 175.000 L 0.000 204.000 10.357 204.000 C 22.140 204.000,21.200 203.675,21.200 207.756 C 21.200 211.448,22.395 212.365,27.238 212.390 L 29.076 212.400 29.342 218.500 C 29.740 227.606,30.072 228.213,34.903 228.664 L 37.600 228.916 37.607 231.958 C 37.630 241.116,39.208 244.290,44.100 245.011 L 46.000 245.291 46.000 248.756 C 46.000 252.925,46.534 254.000,48.604 254.000 C 49.708 254.000,50.354 254.392,52.065 256.100 L 54.168 258.200 54.419 263.400 C 54.762 270.512,54.588 270.257,59.390 270.663 L 62.261 270.906 62.650 278.033 C 63.088 286.060,63.281 286.567,66.036 286.971 C 66.896 287.097,68.320 287.306,69.200 287.435 L 70.800 287.670 70.800 289.619 C 70.800 299.994,72.138 302.965,77.045 303.484 L 79.089 303.700 79.311 307.731 C 79.472 310.640,79.699 311.883,80.129 312.197 C 80.456 312.437,80.926 313.381,81.172 314.295 C 81.753 316.455,83.622 318.293,85.790 318.839 L 87.514 319.273 87.762 323.737 C 88.065 329.188,88.065 328.134,87.760 337.864 L 87.508 345.928 84.654 346.210 C 79.544 346.714,79.481 346.871,79.434 359.200 C 79.398 368.719,79.567 370.209,80.721 370.575 C 81.117 370.701,81.662 371.417,81.934 372.167 C 82.455 373.609,85.230 376.400,86.142 376.400 C 86.439 376.400,87.229 376.924,87.899 377.564 C 89.486 379.081,91.977 379.356,101.912 379.112 C 111.411 378.879,111.722 378.754,112.102 375.000 C 112.169 374.340,112.371 376.550,112.550 379.910 C 112.961 387.595,112.847 387.460,119.171 387.702 L 121.743 387.800 122.234 389.989 C 123.224 394.397,127.056 395.599,136.293 394.400 C 140.825 393.811,144.000 391.500,144.000 388.789 C 144.000 388.546,144.446 387.762,144.991 387.047 C 145.954 385.785,145.985 385.537,146.091 378.174 L 146.200 370.600 148.962 370.327 C 153.750 369.854,153.911 369.357,153.966 354.926 L 154.000 346.053 171.500 345.864 C 189.331 345.672,193.892 345.370,195.113 344.297 C 195.491 343.965,196.542 343.320,197.450 342.864 C 199.304 341.932,201.078 340.024,201.443 338.569 L 201.687 337.600 213.943 337.656 C 220.685 337.687,225.240 337.829,224.066 337.971 C 222.617 338.146,221.719 338.492,221.266 339.050 C 220.900 339.503,220.014 340.103,219.298 340.385 C 217.805 340.974,215.691 343.220,215.138 344.805 C 214.775 345.848,214.632 345.894,210.933 346.154 C 205.378 346.544,204.984 346.875,204.553 351.520 L 204.293 354.316 201.349 354.592 C 196.514 355.045,196.024 356.131,196.008 366.444 L 196.000 371.489 193.961 371.730 C 188.474 372.380,187.358 376.427,187.907 393.700 L 188.107 400.000 207.454 400.000 L 226.800 400.000 226.800 397.986 C 226.800 396.878,227.060 395.573,227.377 395.086 C 228.156 393.892,228.755 390.005,229.063 384.146 L 229.319 379.292 231.962 379.031 C 236.427 378.591,237.431 377.384,237.562 372.300 L 237.600 370.800 239.932 370.800 C 242.006 370.800,242.324 370.910,242.796 371.792 C 243.087 372.337,243.927 373.192,244.660 373.692 C 245.824 374.484,245.995 374.820,245.997 376.320 C 246.001 378.485,247.375 379.200,251.531 379.200 L 254.288 379.200 254.495 385.700 C 254.719 392.729,255.061 394.101,256.752 394.745 C 260.165 396.046,281.283 396.434,284.864 395.261 C 287.234 394.486,287.347 393.824,287.512 379.800 C 287.702 363.559,287.640 363.197,284.574 362.621 C 282.115 362.160,279.200 358.917,279.200 356.643 C 279.200 355.655,279.041 354.749,278.846 354.629 C 278.652 354.508,278.364 353.555,278.207 352.510 C 277.476 347.632,275.313 346.472,266.300 346.119 L 262.000 345.950 262.000 343.762 C 262.000 337.963,261.843 337.911,243.400 337.624 C 232.453 337.454,229.787 337.322,232.282 337.074 C 234.613 336.843,235.947 336.490,236.882 335.860 C 237.607 335.371,238.796 334.726,239.524 334.427 C 240.937 333.847,242.479 332.096,243.163 330.298 L 243.580 329.200 257.090 329.193 C 270.138 329.186,277.652 328.781,278.563 328.036 C 278.803 327.839,279.799 327.464,280.776 327.203 C 283.015 326.604,284.992 324.659,285.580 322.476 L 286.031 320.800 295.158 320.800 L 304.285 320.800 304.516 323.863 C 304.825 327.941,305.262 328.362,309.756 328.907 L 313.200 329.324 313.202 330.762 C 313.209 334.837,314.527 336.342,318.397 336.693 C 319.731 336.814,320.918 337.068,321.035 337.257 C 321.152 337.445,321.659 337.600,322.163 337.600 C 322.842 337.600,323.262 338.007,323.790 339.178 C 324.662 341.112,325.749 342.169,327.705 342.986 C 328.527 343.330,329.200 343.868,329.200 344.183 C 329.200 345.053,330.819 346.000,332.308 346.000 C 333.441 346.000,334.091 346.465,336.719 349.160 C 343.106 355.712,353.142 354.578,353.191 347.300 C 353.199 346.105,353.305 345.999,354.500 345.986 C 356.267 345.967,360.787 344.973,361.261 344.499 C 362.213 343.547,362.911 326.657,362.155 322.876 C 361.855 321.375,361.582 321.265,357.367 320.941 C 354.042 320.685,354.000 320.668,354.000 319.605 C 354.000 318.586,354.150 318.501,356.814 318.025 C 360.486 317.369,364.191 315.513,365.325 313.761 C 366.076 312.602,366.427 312.408,367.800 312.399 C 370.760 312.378,370.601 313.227,370.594 297.514 C 370.586 279.730,370.548 279.600,365.396 279.600 C 361.089 279.600,360.285 279.269,359.200 277.048 C 358.368 275.345,357.850 274.832,356.121 274.000 C 354.816 273.372,353.961 272.679,353.823 272.137 C 353.625 271.358,353.242 271.248,349.835 270.992 L 346.066 270.710 345.633 268.222 C 345.395 266.854,345.200 265.462,345.200 265.129 C 345.200 263.610,343.783 263.114,338.384 262.740 L 333.139 262.377 331.169 260.407 L 329.200 258.438 329.200 247.251 L 329.200 236.064 331.143 235.419 C 336.924 233.499,337.578 229.062,337.591 191.708 L 337.600 166.417 339.825 164.228 C 341.048 163.024,342.381 161.933,342.786 161.804 C 344.621 161.222,345.406 156.716,345.872 144.100 L 346.112 137.600 349.623 137.600 C 351.565 137.600,353.193 137.424,353.267 137.207 C 353.340 136.991,354.657 136.406,356.192 135.907 C 359.320 134.891,360.612 133.517,361.057 130.732 C 361.300 129.217,361.323 129.200,363.151 129.176 C 369.047 129.100,370.193 128.279,370.610 123.834 L 370.887 120.872 374.859 120.736 C 377.219 120.655,378.946 120.418,379.115 120.150 C 379.272 119.903,380.030 119.566,380.800 119.402 C 384.026 118.714,385.066 117.645,386.154 113.900 C 386.522 112.635,386.997 111.600,387.211 111.600 C 387.738 111.600,387.721 94.348,387.192 91.558 C 386.552 88.181,386.190 87.986,380.059 87.713 L 374.793 87.479 372.797 85.482 L 370.800 83.486 370.798 80.043 C 370.793 73.189,370.205 71.444,367.737 70.968 C 366.322 70.696,362.876 67.594,362.118 65.912 C 360.463 62.236,347.979 62.174,346.312 65.834 C 346.063 66.380,345.000 67.686,343.948 68.737 L 342.037 70.649 337.380 71.134 C 330.667 71.834,329.600 72.770,329.600 77.961 L 329.600 79.082 325.705 79.315 C 322.343 79.515,321.713 79.667,321.103 80.421 C 320.549 81.104,320.275 81.194,319.840 80.833 C 319.181 80.286,310.522 79.208,306.747 79.203 L 304.093 79.200 303.806 76.520 C 303.261 71.428,303.168 71.377,293.700 70.951 L 287.600 70.677 287.590 69.038 C 287.562 64.123,286.419 62.800,282.206 62.800 C 277.713 62.800,276.993 62.558,276.191 60.780 C 275.337 58.887,274.240 57.827,272.295 57.014 C 271.473 56.670,270.797 56.257,270.794 56.095 C 270.769 54.904,269.874 54.592,265.924 54.400 L 261.819 54.200 261.515 52.400 C 260.690 47.521,258.903 46.571,249.719 46.126 L 245.638 45.928 245.411 44.064 C 244.709 38.304,244.441 38.133,235.551 37.750 L 229.326 37.481 228.906 34.298 C 228.281 29.567,227.582 29.266,217.100 29.221 L 212.400 29.200 212.400 14.600 L 212.400 0.000 183.407 0.000 L 154.413 0.000 154.307 10.698 M74.410 29.982 C 72.398 30.494,71.686 31.616,71.376 34.761 L 71.108 37.489 68.036 37.725 C 63.116 38.105,62.800 38.435,62.800 43.192 L 62.800 45.932 59.784 46.214 C 55.397 46.625,54.472 47.813,54.417 53.100 C 54.400 54.794,54.395 54.800,52.900 54.802 C 48.906 54.808,47.039 56.265,46.615 59.708 C 46.129 63.660,46.004 63.985,44.868 64.252 C 41.963 64.935,39.200 67.729,39.200 69.982 C 39.200 70.273,38.885 70.742,38.500 71.023 C 37.923 71.444,37.776 72.306,37.666 75.929 L 37.531 80.324 36.079 80.596 C 28.849 81.953,28.287 92.149,35.330 94.197 L 37.541 94.839 37.795 97.520 C 38.420 104.113,37.769 103.800,50.861 103.800 C 62.102 103.800,61.880 103.847,62.282 101.374 C 62.637 99.188,65.889 96.000,67.765 96.000 C 69.915 96.000,70.576 94.880,70.741 90.958 L 70.882 87.600 72.941 87.598 C 77.837 87.592,78.794 86.791,79.092 82.448 L 79.310 79.266 81.755 79.009 C 86.406 78.520,86.886 77.993,87.458 72.749 L 87.704 70.498 89.827 70.248 C 93.997 69.758,95.200 68.502,95.200 64.636 C 95.200 63.652,95.380 62.736,95.600 62.600 C 95.852 62.445,96.000 58.120,96.000 50.950 C 96.000 39.636,95.882 38.493,94.600 37.400 C 94.342 37.180,93.925 36.269,93.672 35.376 C 92.488 31.186,81.625 28.143,74.410 29.982 M180.387 51.976 C 181.117 53.340,182.563 53.644,189.500 53.891 L 196.000 54.123 196.002 56.361 C 196.008 61.762,196.329 62.023,203.335 62.303 L 208.471 62.509 210.433 64.471 C 211.891 65.929,212.461 66.839,212.648 68.009 C 213.001 70.219,213.515 70.486,217.843 70.712 C 220.132 70.832,221.722 71.091,221.803 71.356 C 221.877 71.600,222.056 72.507,222.200 73.372 C 222.550 75.462,224.537 77.450,226.628 77.800 C 227.493 77.945,228.879 78.319,229.708 78.632 C 230.570 78.957,232.644 79.200,234.550 79.200 L 237.884 79.200 238.127 81.798 C 238.396 84.680,238.828 85.760,239.889 86.202 C 241.318 86.796,247.491 87.572,250.900 87.586 L 254.400 87.600 254.410 89.300 C 254.442 95.021,256.047 95.958,265.868 95.986 L 270.736 96.000 270.978 98.700 C 271.437 103.813,271.532 103.894,277.217 103.960 L 280.634 104.000 281.126 105.840 C 281.741 108.137,283.341 109.773,285.633 110.448 C 286.605 110.734,287.597 111.227,287.837 111.542 C 288.146 111.947,289.455 112.173,292.297 112.309 L 296.321 112.503 296.580 114.578 C 296.941 117.469,298.002 119.065,299.881 119.543 C 303.180 120.383,306.398 120.800,309.574 120.800 L 312.900 120.800 312.650 122.050 C 312.513 122.737,312.400 124.959,312.400 126.987 L 312.400 130.673 310.818 131.147 C 304.898 132.921,304.435 135.894,304.414 172.239 C 304.406 186.120,304.284 199.113,304.142 201.113 L 303.884 204.749 302.242 205.019 C 295.998 206.047,296.029 205.832,296.012 248.467 C 295.999 278.947,295.987 278.663,297.396 279.198 C 298.065 279.453,298.342 279.973,298.527 281.321 C 298.745 282.908,299.335 284.894,300.170 286.851 C 300.424 287.445,298.931 287.518,283.124 287.683 C 267.831 287.843,265.636 287.944,264.400 288.548 C 259.149 291.113,258.237 291.831,257.142 294.266 L 256.393 295.932 239.896 296.096 L 223.400 296.261 220.000 297.512 C 216.316 298.868,214.985 300.039,214.556 302.304 C 214.190 304.237,214.614 304.185,197.600 304.400 L 181.800 304.600 178.499 305.743 C 174.846 307.008,173.502 308.195,172.810 310.763 L 172.399 312.290 156.699 312.575 C 134.333 312.980,131.530 313.696,130.593 319.243 C 130.091 322.216,129.341 321.880,129.060 318.558 C 128.631 313.477,128.066 312.916,123.300 312.840 L 120.800 312.800 120.793 309.500 C 120.770 298.624,120.034 296.907,115.200 296.447 L 112.600 296.200 112.364 292.400 C 111.789 283.158,110.786 281.107,106.437 280.280 L 104.000 279.817 103.995 276.608 C 103.986 271.764,103.358 270.800,100.208 270.800 C 99.697 270.800,99.123 270.403,98.822 269.842 C 98.540 269.315,97.790 268.499,97.155 268.030 C 96.014 267.186,96.000 267.128,95.994 263.088 C 95.983 255.828,95.331 254.745,90.815 254.483 L 87.600 254.297 87.600 249.965 C 87.600 240.453,86.628 238.006,82.846 237.995 C 79.277 237.984,79.201 237.910,79.193 234.453 C 79.174 226.499,77.772 222.240,75.036 221.825 C 74.356 221.722,73.142 221.534,72.338 221.408 L 70.876 221.178 70.738 217.430 C 70.639 214.752,70.420 213.471,69.968 212.941 C 69.620 212.534,69.031 211.372,68.658 210.360 C 67.812 208.065,66.583 206.887,64.343 206.228 L 62.600 205.714 62.349 201.620 C 62.029 196.400,61.892 196.247,57.386 196.059 L 54.000 195.918 53.990 189.859 C 53.976 180.588,53.748 180.014,49.921 179.627 L 47.400 179.373 50.137 179.129 C 53.640 178.818,53.773 178.654,53.938 174.428 L 54.076 170.894 57.641 170.724 C 62.039 170.514,62.114 170.439,62.323 166.050 L 62.493 162.493 66.050 162.323 C 70.444 162.113,70.513 162.043,70.726 157.603 L 70.898 154.000 73.349 153.998 C 78.602 153.993,79.200 153.415,79.200 148.350 C 79.200 146.478,79.328 146.000,79.830 146.000 C 80.584 146.000,87.600 139.052,87.600 138.306 C 87.600 138.020,88.050 137.123,88.600 136.314 C 89.150 135.505,89.600 134.758,89.600 134.654 C 89.600 134.216,92.694 131.351,93.763 130.800 C 95.038 130.143,96.712 128.619,97.511 127.387 C 97.792 126.954,98.339 126.114,98.726 125.520 C 99.426 124.446,102.100 122.400,102.804 122.400 C 103.006 122.400,103.365 122.040,103.600 121.600 C 103.914 121.013,104.438 120.800,105.565 120.800 C 106.443 120.800,107.315 120.543,107.600 120.200 C 107.874 119.870,108.270 119.600,108.480 119.600 C 109.829 119.600,112.400 115.767,112.400 113.754 L 112.400 112.400 114.900 112.353 C 120.061 112.255,120.731 111.594,120.777 106.550 L 120.800 104.100 124.215 103.921 C 128.608 103.691,128.872 103.437,129.116 99.221 L 129.303 96.000 131.603 96.000 C 136.236 96.000,137.600 94.622,137.600 89.940 L 137.600 87.600 139.940 87.600 C 144.622 87.600,146.000 86.236,146.000 81.603 L 146.000 79.303 149.221 79.116 C 153.437 78.872,153.691 78.608,153.921 74.215 L 154.100 70.800 156.550 70.777 C 161.594 70.731,162.255 70.061,162.353 64.900 L 162.400 62.400 164.900 62.353 C 170.061 62.255,170.731 61.594,170.777 56.550 L 170.800 54.100 174.215 53.921 C 178.536 53.694,178.735 53.501,179.093 49.179 L 179.373 45.800 179.649 48.457 C 179.801 49.918,180.133 51.502,180.387 51.976 M226.000 96.407 C 222.207 96.783,221.708 97.326,221.318 101.494 C 221.016 104.736,220.690 104.976,217.011 104.665 C 213.076 104.332,212.765 104.628,213.082 108.405 C 213.247 110.374,213.181 111.200,212.858 111.200 C 212.606 111.200,212.400 111.675,212.400 112.255 L 212.400 113.310 209.404 113.039 C 204.786 112.620,203.929 113.639,204.683 118.650 C 204.878 119.943,204.934 121.540,204.807 122.200 C 204.681 122.860,204.694 124.030,204.836 124.800 L 205.095 126.200 205.166 124.800 C 205.363 120.959,205.632 119.414,206.157 119.120 C 206.470 118.945,206.641 118.480,206.539 118.086 C 206.303 117.188,208.318 114.644,209.400 114.474 C 212.025 114.060,213.159 113.560,212.915 112.923 C 212.747 112.485,212.819 112.364,213.132 112.558 C 213.456 112.758,213.600 112.409,213.600 111.424 C 213.600 110.641,213.763 110.000,213.963 110.000 C 214.162 110.000,214.241 109.678,214.138 109.285 C 213.898 108.365,215.435 106.400,216.396 106.400 C 216.801 106.400,217.204 106.188,217.290 105.930 C 217.376 105.671,218.156 105.422,219.023 105.375 C 222.405 105.194,226.273 104.012,225.870 103.283 C 225.650 102.886,227.892 100.825,228.204 101.138 C 228.345 101.278,228.635 101.080,228.850 100.697 C 229.064 100.314,229.511 100.000,229.843 100.000 C 230.176 100.000,230.334 99.816,230.195 99.592 C 229.793 98.941,232.756 97.903,234.225 98.178 C 235.117 98.346,235.712 98.231,236.132 97.811 C 236.886 97.057,243.200 96.915,243.200 97.651 C 243.200 97.949,243.714 98.020,244.715 97.860 C 245.549 97.727,246.944 97.827,247.815 98.083 C 249.884 98.691,249.889 98.692,250.667 98.750 C 251.033 98.778,251.212 98.921,251.064 99.069 C 250.916 99.217,251.400 99.892,252.139 100.570 C 252.878 101.247,253.623 102.242,253.794 102.782 C 254.201 104.065,254.815 104.636,255.800 104.649 C 259.737 104.700,263.333 105.734,262.493 106.574 C 262.345 106.721,262.526 106.726,262.896 106.585 C 264.524 105.960,268.735 108.549,268.230 109.865 C 268.090 110.232,268.177 110.338,268.473 110.155 C 268.785 109.962,268.850 110.093,268.673 110.555 C 268.516 110.963,268.570 111.142,268.805 110.997 C 269.023 110.862,269.200 111.183,269.200 111.715 C 269.200 112.245,269.560 113.093,270.000 113.600 C 270.440 114.107,270.800 115.029,270.800 115.647 C 270.800 116.378,271.092 116.928,271.634 117.218 C 272.756 117.819,274.400 119.269,274.400 119.659 C 274.400 119.832,275.075 120.648,275.900 121.473 C 276.725 122.298,277.406 123.339,277.413 123.787 C 277.421 124.234,277.524 124.780,277.642 125.000 C 277.760 125.220,277.890 125.926,277.930 126.568 C 278.020 128.017,278.322 128.354,278.845 127.588 C 279.275 126.958,278.996 119.906,278.421 116.857 C 277.949 114.359,277.026 113.627,273.722 113.137 L 270.912 112.720 270.675 109.642 C 270.300 104.779,269.512 104.127,264.443 104.490 L 261.800 104.679 261.680 102.878 C 261.273 96.778,258.980 96.065,240.000 96.141 C 233.510 96.167,227.210 96.287,226.000 96.407 M278.600 137.801 C 278.600 141.871,278.735 145.200,278.900 145.200 C 279.065 145.200,279.200 141.870,279.200 137.800 C 279.200 133.730,279.065 130.400,278.900 130.400 C 278.735 130.401,278.600 133.731,278.600 137.801 M204.150 137.400 C 204.151 139.820,204.216 140.758,204.296 139.485 C 204.376 138.212,204.375 136.232,204.294 135.085 C 204.214 133.938,204.149 134.980,204.150 137.400 M237.600 136.746 C 237.600 136.908,237.816 137.256,238.080 137.520 C 238.453 137.893,238.453 138.000,238.080 138.000 C 237.816 138.000,237.603 138.315,237.606 138.700 C 237.610 139.177,237.710 139.247,237.918 138.919 C 238.086 138.654,238.988 138.315,239.921 138.166 L 241.619 137.895 240.562 137.347 C 239.284 136.683,237.600 136.342,237.600 136.746 M278.145 147.800 C 278.271 148.130,278.181 148.400,277.944 148.400 C 277.680 148.400,277.614 148.802,277.774 149.440 C 278.135 150.876,277.294 153.322,276.539 153.032 C 276.220 152.909,276.054 152.964,276.172 153.154 C 276.289 153.344,275.938 153.981,275.393 154.570 C 274.847 155.159,274.400 155.792,274.400 155.976 C 274.400 156.275,273.546 157.027,271.525 158.506 C 271.154 158.778,270.724 159.703,270.569 160.563 L 270.287 162.125 273.183 161.883 C 276.888 161.572,277.814 160.966,278.333 158.515 C 279.369 153.617,279.373 147.200,278.339 147.200 C 278.106 147.200,278.018 147.470,278.145 147.800 M204.713 150.279 C 204.614 151.116,204.652 152.340,204.798 153.000 C 204.943 153.660,204.882 155.489,204.662 157.065 C 204.044 161.491,204.996 162.400,210.250 162.400 C 212.133 162.400,212.400 162.499,212.400 163.200 C 212.400 163.640,212.606 164.000,212.857 164.000 C 213.182 164.000,213.239 164.812,213.056 166.790 C 212.736 170.228,213.411 170.932,216.887 170.788 C 221.274 170.607,221.054 170.478,221.327 173.398 C 221.834 178.831,223.049 179.191,240.900 179.197 C 257.098 179.202,260.639 178.269,261.399 173.793 C 261.910 170.786,261.721 170.930,265.457 170.697 C 270.111 170.407,270.498 170.015,270.556 165.533 C 270.599 162.303,269.590 160.631,268.881 162.756 C 268.779 163.064,268.878 163.199,269.105 163.058 C 269.499 162.815,269.340 163.788,268.565 166.359 C 268.325 167.154,268.201 167.219,267.838 166.743 C 267.461 166.248,267.306 166.264,266.731 166.853 C 266.105 167.493,266.105 167.556,266.731 167.809 C 267.292 168.036,267.238 168.146,266.400 168.485 C 264.752 169.153,262.787 169.544,263.026 169.157 C 263.148 168.961,263.040 168.800,262.786 168.800 C 262.533 168.800,262.231 169.160,262.116 169.600 C 261.996 170.058,261.541 170.423,261.053 170.454 C 260.584 170.484,259.230 170.561,258.045 170.625 C 254.601 170.811,254.190 171.008,253.758 172.689 C 253.544 173.520,253.156 174.157,252.896 174.104 C 252.312 173.985,251.472 175.469,251.811 176.018 C 251.948 176.239,251.911 176.394,251.730 176.363 C 250.753 176.193,250.000 176.470,250.000 177.000 C 250.000 177.330,249.719 177.600,249.376 177.600 C 249.033 177.600,248.864 177.420,249.000 177.200 C 249.136 176.980,249.076 176.800,248.866 176.800 C 248.657 176.800,248.382 177.070,248.255 177.400 C 248.129 177.730,247.739 178.000,247.389 178.000 C 247.039 178.000,246.843 177.853,246.954 177.674 C 247.065 177.495,245.981 177.490,244.545 177.663 C 241.683 178.007,235.476 177.818,234.740 177.363 C 234.454 177.186,234.385 177.251,234.559 177.534 C 234.876 178.046,233.746 177.743,232.900 177.089 C 232.567 176.831,232.400 176.852,232.400 177.151 C 232.400 177.398,232.220 177.600,232.000 177.600 C 231.780 177.600,231.600 177.351,231.600 177.046 C 231.600 176.741,230.970 176.192,230.200 175.827 C 229.430 175.461,228.800 175.035,228.800 174.879 C 228.800 174.723,228.293 174.371,227.674 174.097 C 227.053 173.822,226.239 172.952,225.861 172.160 C 225.208 170.790,225.092 170.728,223.426 170.861 C 222.464 170.937,221.760 170.865,221.862 170.700 C 221.964 170.535,221.407 170.400,220.624 170.400 C 219.841 170.400,219.200 170.244,219.200 170.052 C 219.200 169.861,218.588 169.605,217.839 169.484 C 215.445 169.095,213.028 165.799,213.723 163.870 C 213.962 163.206,213.237 161.930,212.780 162.212 C 212.571 162.342,212.400 162.257,212.400 162.024 C 212.400 161.791,211.815 161.597,211.100 161.594 C 210.114 161.589,209.945 161.494,210.400 161.200 C 210.879 160.890,210.799 160.801,210.000 160.759 C 209.450 160.729,208.910 160.694,208.800 160.680 C 208.532 160.647,206.400 158.400,206.636 158.400 C 206.737 158.400,206.541 157.860,206.200 157.200 C 205.858 156.538,205.476 154.431,205.348 152.500 C 205.085 148.527,204.968 148.117,204.713 150.279 M272.575 155.700 L 271.400 157.000 272.700 155.825 C 273.415 155.179,274.000 154.594,274.000 154.525 C 274.000 154.216,273.670 154.488,272.575 155.700 M355.600 188.117 C 354.863 188.490,354.543 189.041,354.385 190.211 C 354.076 192.485,350.566 196.000,348.604 196.000 C 345.956 196.000,346.000 195.667,346.000 215.839 C 346.000 238.812,345.678 237.600,351.787 237.600 L 354.400 237.600 354.400 240.374 C 354.400 246.243,353.881 246.108,375.600 245.912 C 396.158 245.727,395.156 246.034,395.874 239.700 L 396.112 237.600 398.056 237.600 L 400.000 237.600 400.000 216.800 L 400.000 196.000 398.058 196.000 L 396.115 196.000 395.887 192.974 C 395.608 189.289,394.978 188.200,392.928 187.861 C 389.830 187.349,356.669 187.577,355.600 188.117 M247.700 222.276 C 248.085 222.376,248.715 222.376,249.100 222.276 C 249.485 222.175,249.170 222.093,248.400 222.093 C 247.630 222.093,247.315 222.175,247.700 222.276 M239.687 223.609 C 239.219 224.359,239.241 224.381,239.991 223.913 C 240.436 223.635,240.800 223.271,240.800 223.104 C 240.800 222.526,240.191 222.803,239.687 223.609 M229.449 235.415 C 229.312 235.773,229.218 236.456,229.241 236.933 C 229.267 237.481,229.403 237.286,229.610 236.403 C 229.960 234.916,229.865 234.333,229.449 235.415 M216.700 239.888 C 216.975 239.982,217.200 240.225,217.200 240.429 C 217.200 240.633,217.411 240.800,217.669 240.800 C 217.926 240.800,218.511 241.115,218.969 241.500 L 219.800 242.200 219.004 241.200 C 218.567 240.650,218.206 240.170,218.203 240.133 C 218.201 240.095,217.749 239.987,217.199 239.891 C 216.650 239.795,216.425 239.794,216.700 239.888 M182.031 248.236 C 181.354 248.805,180.805 249.480,180.812 249.736 C 180.819 249.991,181.015 249.873,181.247 249.473 C 181.480 249.073,182.239 248.398,182.935 247.974 C 183.631 247.550,183.989 247.202,183.731 247.201 C 183.473 247.201,182.708 247.666,182.031 248.236 M184.296 248.434 C 183.026 249.174,181.611 250.811,181.462 251.714 C 181.382 252.201,181.394 252.375,181.488 252.100 C 181.582 251.825,181.825 251.600,182.029 251.600 C 182.233 251.600,182.400 251.362,182.400 251.072 C 182.400 250.447,184.101 248.897,185.331 248.401 C 185.828 248.200,185.943 248.045,185.600 248.038 C 185.270 248.030,184.683 248.209,184.296 248.434 M269.600 252.600 C 269.600 252.930,269.390 253.200,269.133 253.200 C 268.877 253.200,268.782 253.316,268.924 253.457 C 269.221 253.755,270.400 252.872,270.400 252.351 C 270.400 252.158,270.220 252.000,270.000 252.000 C 269.780 252.000,269.600 252.270,269.600 252.600 M17.207 254.789 C 14.108 255.278,13.348 256.271,13.004 260.281 C 12.638 264.554,12.580 264.683,10.639 265.542 C 7.335 267.003,5.152 271.876,5.058 278.000 C 4.963 284.188,5.885 285.689,10.321 286.575 L 12.600 287.030 12.689 289.415 C 13.281 305.184,15.196 310.800,19.982 310.800 C 20.273 310.800,20.742 311.115,21.023 311.500 C 21.441 312.072,22.297 312.225,25.718 312.335 L 29.901 312.470 30.144 314.242 C 31.135 321.474,40.188 322.361,46.578 315.852 C 48.334 314.064,50.317 312.409,50.985 312.176 C 53.594 311.266,53.800 310.111,53.800 296.400 C 53.800 280.649,53.685 280.289,48.472 279.744 L 46.000 279.486 45.991 275.643 C 45.967 265.014,44.775 262.843,38.939 262.810 L 37.279 262.800 36.990 260.300 C 36.376 254.990,35.972 254.770,26.444 254.582 C 22.570 254.505,18.413 254.598,17.207 254.789 M260.236 264.267 C 260.079 264.963,259.692 265.633,259.376 265.754 C 259.059 265.876,258.800 266.238,258.800 266.560 C 258.800 266.883,258.440 267.260,258.000 267.400 C 257.560 267.540,257.200 267.817,257.200 268.016 C 257.200 268.214,256.615 268.538,255.900 268.735 L 254.600 269.093 255.686 269.386 C 258.331 270.101,261.752 266.629,260.893 264.100 L 260.520 263.000 260.236 264.267 M260.587 265.709 C 260.274 266.956,258.530 268.629,257.200 268.957 L 256.200 269.204 257.178 268.706 C 258.613 267.975,259.957 266.512,260.244 265.367 C 260.383 264.815,260.573 264.440,260.668 264.534 C 260.762 264.628,260.726 265.157,260.587 265.709 M180.012 268.238 C 179.996 268.838,181.542 270.192,181.869 269.864 C 182.014 269.719,181.913 269.600,181.643 269.600 C 181.373 269.600,181.281 269.392,181.438 269.138 C 181.609 268.861,181.549 268.785,181.286 268.947 C 181.046 269.095,180.664 268.898,180.437 268.508 C 180.210 268.119,180.019 267.997,180.012 268.238 M183.000 270.000 C 182.864 270.220,183.123 270.400,183.576 270.400 C 184.029 270.400,184.400 270.220,184.400 270.000 C 184.400 269.780,184.141 269.600,183.824 269.600 C 183.507 269.600,183.136 269.780,183.000 270.000 M245.062 277.383 C 244.932 277.722,244.549 278.000,244.213 278.000 C 243.876 278.000,243.600 278.180,243.600 278.400 C 243.600 278.620,243.752 278.800,243.938 278.800 C 244.419 278.800,245.772 277.238,245.514 276.980 C 245.395 276.862,245.192 277.043,245.062 277.383 M112.690 365.693 C 112.601 366.412,112.526 365.920,112.524 364.600 C 112.522 363.280,112.595 362.692,112.686 363.293 C 112.777 363.894,112.779 364.974,112.690 365.693 " stroke="none" fill="#0c0404" fill-rule="evenodd"></path><path id="path4" d="M242.860 221.651 C 240.034 221.995,238.588 222.750,237.912 224.234 C 237.252 225.682,233.606 229.200,232.765 229.200 C 231.338 229.200,229.935 230.904,229.709 232.913 C 229.566 234.175,229.646 234.800,229.948 234.800 C 230.197 234.800,230.400 235.145,230.400 235.567 C 230.400 237.059,229.938 237.600,228.657 237.606 C 227.663 237.611,227.525 237.700,228.000 238.034 C 228.435 238.339,227.983 238.387,226.356 238.206 C 223.126 237.847,222.146 238.200,221.346 240.012 L 220.671 241.544 219.909 240.575 C 218.921 239.320,215.522 238.337,211.975 238.283 C 210.455 238.259,209.434 238.099,209.706 237.926 C 209.978 237.754,207.050 237.624,203.200 237.638 C 199.350 237.652,196.426 237.754,196.702 237.866 C 196.979 237.977,197.098 238.242,196.967 238.454 C 196.821 238.690,196.509 238.656,196.158 238.365 C 195.782 238.053,194.684 237.964,192.945 238.104 C 189.086 238.413,188.217 239.378,188.207 243.361 C 188.203 244.987,188.065 246.236,187.900 246.136 C 187.735 246.035,187.600 246.123,187.600 246.331 C 187.600 246.539,186.829 246.825,185.887 246.966 C 182.043 247.543,180.780 249.176,180.035 254.533 C 179.389 259.177,179.457 262.400,180.200 262.400 C 180.530 262.400,180.800 262.580,180.800 262.800 C 180.800 263.020,180.530 263.200,180.200 263.200 C 179.789 263.200,179.601 263.610,179.602 264.500 C 179.608 268.118,181.422 270.574,183.416 269.665 C 184.220 269.299,184.400 269.326,184.400 269.809 C 184.400 270.249,184.895 270.400,186.345 270.400 C 188.236 270.400,188.285 270.430,188.136 271.500 L 187.983 272.600 188.433 271.600 C 188.864 270.645,188.899 270.636,189.214 271.400 C 189.700 272.580,189.702 273.980,189.216 273.212 C 188.622 272.273,188.280 273.033,188.578 274.626 C 188.982 276.775,190.482 278.126,192.111 277.805 C 193.127 277.605,193.273 277.648,192.800 278.008 C 192.334 278.362,192.596 278.409,193.967 278.217 C 195.202 278.044,195.830 278.124,196.052 278.485 C 196.513 279.230,243.252 279.245,243.500 278.500 C 243.592 278.225,243.915 278.000,244.219 278.000 C 245.061 278.000,245.665 276.625,245.081 276.038 C 244.705 275.659,244.753 275.611,245.300 275.819 C 245.792 276.006,246.000 275.889,246.000 275.424 C 246.000 274.105,249.823 270.800,251.348 270.800 C 252.978 270.800,254.000 270.466,254.000 269.934 C 254.000 269.724,253.792 269.681,253.538 269.838 C 253.274 270.002,253.184 269.949,253.329 269.715 C 253.467 269.491,254.080 269.387,254.690 269.485 C 255.542 269.621,255.661 269.566,255.205 269.249 C 254.757 268.938,255.029 268.852,256.294 268.902 C 258.962 269.008,261.988 265.029,261.066 262.627 C 260.939 262.296,261.035 261.902,261.279 261.751 C 261.548 261.585,261.611 261.659,261.438 261.938 C 261.281 262.192,261.324 262.400,261.534 262.400 C 262.166 262.400,262.334 261.468,262.361 257.792 C 262.391 253.627,262.072 254.089,265.000 253.966 C 267.915 253.844,269.600 253.320,269.600 252.537 C 269.600 252.197,269.407 252.072,269.138 252.238 C 268.859 252.411,268.785 252.348,268.951 252.079 C 269.102 251.835,269.465 251.727,269.757 251.839 C 270.553 252.144,270.791 249.926,270.796 242.156 C 270.801 234.456,270.530 231.600,269.795 231.600 C 269.521 231.600,269.074 231.330,268.800 231.000 C 268.499 230.638,268.467 230.400,268.718 230.400 C 268.946 230.400,269.214 230.625,269.312 230.900 C 269.410 231.175,269.650 231.250,269.845 231.067 C 270.279 230.660,268.915 229.600,267.957 229.600 C 267.577 229.600,267.176 229.825,267.065 230.100 C 266.906 230.495,266.857 230.493,266.832 230.092 C 266.810 229.750,266.441 229.663,265.700 229.825 C 264.829 230.015,264.725 229.971,265.200 229.617 C 265.655 229.279,264.936 229.195,262.237 229.275 C 259.102 229.367,258.622 229.289,258.237 228.625 C 257.112 226.683,254.721 224.991,253.670 225.395 C 253.204 225.573,253.183 225.503,253.563 225.045 C 253.933 224.598,253.924 224.399,253.519 224.146 C 252.975 223.806,252.768 223.760,251.300 223.661 C 250.794 223.627,250.400 223.338,250.400 223.000 C 250.400 222.643,250.764 222.402,251.300 222.406 C 252.031 222.411,252.087 222.486,251.600 222.806 C 251.169 223.088,251.350 223.132,252.242 222.961 C 253.130 222.791,253.549 222.891,253.710 223.310 C 253.834 223.633,254.443 224.024,255.064 224.180 C 255.684 224.336,256.284 224.588,256.396 224.741 C 256.508 224.894,257.079 225.323,257.665 225.696 C 258.263 226.075,258.848 226.906,258.997 227.586 C 259.227 228.633,260.012 229.353,259.993 228.500 C 259.901 224.277,250.884 220.673,242.860 221.651 M249.600 222.429 C 249.600 222.716,248.866 222.766,247.385 222.581 C 244.409 222.209,241.870 222.957,240.101 224.726 C 239.029 225.797,238.827 225.897,239.222 225.159 C 239.504 224.632,239.728 224.110,239.719 224.000 C 239.656 223.252,240.196 222.808,240.897 223.031 C 241.467 223.212,241.613 223.144,241.400 222.800 C 241.191 222.461,241.327 222.385,241.850 222.548 C 242.262 222.677,242.870 222.609,243.200 222.397 C 244.039 221.859,249.600 221.886,249.600 222.429 M255.373 227.453 C 256.996 229.076,256.986 229.887,255.362 228.368 C 254.366 227.437,253.386 226.000,253.746 226.000 C 253.842 226.000,254.574 226.654,255.373 227.453 M231.655 231.047 C 231.059 231.464,230.801 231.961,230.928 232.447 C 231.037 232.862,230.962 233.100,230.763 232.977 C 229.974 232.489,231.100 230.400,232.151 230.400 C 232.386 230.400,232.162 230.691,231.655 231.047 M192.791 238.700 C 192.787 238.865,192.202 239.270,191.491 239.600 C 190.766 239.937,189.937 240.766,189.600 241.491 C 189.270 242.202,188.865 242.787,188.700 242.791 C 188.149 242.807,188.391 241.976,189.186 241.123 C 189.619 240.659,189.861 240.098,189.724 239.878 C 189.588 239.657,189.658 239.589,189.881 239.726 C 190.103 239.864,190.626 239.632,191.043 239.212 C 191.808 238.440,192.807 238.147,192.791 238.700 M214.800 239.600 C 214.470 239.813,213.930 239.988,213.600 239.988 C 213.067 239.988,213.067 239.945,213.600 239.600 C 213.930 239.387,214.470 239.212,214.800 239.212 C 215.333 239.212,215.333 239.255,214.800 239.600 M218.203 240.133 C 218.206 240.170,218.567 240.650,219.004 241.200 L 219.800 242.200 218.915 241.451 C 218.428 241.040,217.762 240.806,217.435 240.931 C 217.046 241.081,216.913 240.972,217.050 240.615 C 217.165 240.315,217.021 239.990,216.729 239.893 C 216.438 239.796,216.650 239.795,217.199 239.891 C 217.749 239.987,218.201 240.095,218.203 240.133 M187.908 247.675 C 187.661 248.417,186.800 248.540,186.800 247.833 C 186.800 247.485,187.085 247.200,187.433 247.200 C 187.782 247.200,187.995 247.414,187.908 247.675 M186.000 248.424 C 186.000 248.657,185.821 248.737,185.603 248.602 C 185.385 248.467,184.890 248.541,184.503 248.766 C 184.071 249.018,184.002 249.180,184.324 249.188 C 184.612 249.195,184.733 249.385,184.593 249.611 C 184.454 249.836,184.038 249.971,183.670 249.911 C 183.214 249.835,183.040 250.034,183.125 250.531 C 183.203 250.991,182.951 251.340,182.446 251.472 C 182.004 251.588,181.569 251.889,181.480 252.141 C 181.390 252.393,181.382 252.201,181.462 251.714 C 181.765 249.875,186.000 246.804,186.000 248.424 M184.624 251.739 C 184.061 252.303,183.600 252.648,183.600 252.508 C 183.600 252.134,185.308 250.375,185.492 250.559 C 185.578 250.645,185.188 251.176,184.624 251.739 M180.846 257.040 C 180.645 257.898,180.465 258.240,180.446 257.800 C 180.404 256.849,180.836 255.102,181.057 255.324 C 181.143 255.409,181.048 256.181,180.846 257.040 M260.403 264.992 C 259.855 266.651,258.440 268.211,257.113 268.618 L 256.200 268.898 257.161 268.049 C 257.690 267.582,258.275 267.200,258.461 267.200 C 258.648 267.200,258.800 266.924,258.800 266.587 C 258.800 266.251,259.059 265.876,259.376 265.754 C 259.692 265.633,260.069 264.995,260.214 264.338 C 260.358 263.681,260.567 263.234,260.678 263.345 C 260.789 263.456,260.665 264.197,260.403 264.992 M181.151 268.170 C 180.803 268.489,180.746 268.420,180.929 267.900 C 181.064 267.515,181.001 267.200,180.787 267.200 C 180.574 267.200,180.407 266.705,180.416 266.100 C 180.431 265.016,180.440 265.019,181.026 266.370 C 181.478 267.413,181.508 267.842,181.151 268.170 M191.438 276.069 C 191.857 276.547,191.944 276.787,191.632 276.603 C 191.195 276.346,191.126 276.446,191.333 277.034 C 191.565 277.696,191.531 277.718,191.083 277.200 C 190.797 276.870,190.302 276.364,189.982 276.076 C 189.485 275.629,189.512 275.595,190.166 275.844 C 190.700 276.048,190.844 275.995,190.642 275.668 C 190.173 274.909,190.616 275.132,191.438 276.069 " stroke="none" fill="#94d4dc" fill-rule="evenodd"></path></g></svg>